<svg width="48" height="48" viewBox="0 0 48 48" fill="none" xmlns="http://www.w3.org/2000/svg">
<g opacity="0.4">
<circle cx="37" cy="16" r="3" fill="white"/>
<path d="M21 13H27L33 20L34.5 24H40" stroke="white" stroke-width="3" stroke-linecap="round" stroke-linejoin="round"/>
<path fill-rule="evenodd" clip-rule="evenodd" d="M29.5 15.5L31.3516 18.4629L31.5 18.5L33 21L26.6735 25.3799L30.0011 31C30.438 31.7812 30.4068 32.9688 28.8761 33.3125L20.173 35.375C19.6354 35.5015 18.7813 35.2812 18.7038 34.5156C18.5939 33.6875 19.2347 33.1533 19.7723 33.0268L26.2193 31.2031L23.2836 28.3569L21.244 26.3173C20.2368 25.3101 20.2734 23.6662 21.3244 22.7048L23.0412 21.1344L23.041 21.1341L29.5 15.5ZM19.5294 24.1973L9.02614 33.3593C8.39606 33.8971 8.32132 34.8439 8.85918 35.474C9.39705 36.1041 10.3439 36.1788 10.9739 35.641L21.2585 27.746L20.5369 27.0244C19.7616 26.2491 19.4281 25.2045 19.5294 24.1973Z" fill="white"/>
<rect x="11" y="17" width="10" height="2" rx="1" fill="white"/>
<rect x="8" y="21" width="9" height="2" rx="1" fill="white"/>
<rect x="4" y="25" width="9" height="2" rx="1" fill="white"/>
</g>
</svg>
