<svg width="48" height="48" viewBox="0 0 48 48" fill="none" xmlns="http://www.w3.org/2000/svg">
<g opacity="0.4">
<circle cx="29" cy="13" r="3" fill="white"/>
<path d="M24 10.5L29 12.5" stroke="white" stroke-width="2" stroke-linecap="round"/>
<path d="M22.5 25.5L23.5 17.5H23.9415C25.2333 17.5 26.4456 18.1239 27.1965 19.175L31 24.5L34 24" stroke="white" stroke-width="3" stroke-linecap="round" stroke-linejoin="round"/>
<path fill-rule="evenodd" clip-rule="evenodd" d="M28.5 21.4999L26.061 27.3536L29.6712 29.1587C30.1793 29.4128 30.5003 29.9322 30.5003 30.5003V38.0003C30.5003 38.8288 29.8288 39.5003 29.0003 39.5003C28.1719 39.5003 27.5003 38.8288 27.5003 38.0003V31.4274L25.8865 30.6205C25.8752 30.6136 25.8637 30.6071 25.8517 30.6011L22.444 28.8728C20.8999 28.0896 20.2005 26.2639 20.8262 24.6496C20.8423 24.6079 20.8525 24.5653 20.8571 24.5228L23.0703 17.5467C24.1349 14.191 28.9885 19.9602 28.5 21.4999ZM19.7788 27.11L17.5806 31.0666L11.885 31.5047C11.059 31.5683 10.441 32.2894 10.5045 33.1153C10.568 33.9413 11.2891 34.5594 12.1151 34.4959L18.6151 33.9959C19.1174 33.9572 19.5667 33.6691 19.8113 33.2288L21.7948 29.6584C20.7913 29.084 20.09 28.1581 19.7788 27.11Z" fill="white"/>
<path d="M20 16H24V24H21C19.3431 24 18 22.6569 18 21V18C18 16.8954 18.8954 16 20 16Z" fill="white"/>
</g>
</svg>
